<svg width="150" height="150" viewBox="0 0 150 150" fill="none" xmlns="http://www.w3.org/2000/svg">
<path d="M118.953 59.0214C118.953 62.8064 118.492 66.4991 117.569 70.0072C116.554 73.9307 115.031 77.6234 113.093 80.993C111.616 78.4543 109.909 76.054 107.971 73.8846C107.186 73.0075 106.402 72.1767 105.571 71.392C105.064 70.9304 104.602 70.4688 104.095 70.0072C101.926 68.0685 99.5261 66.3607 96.9881 64.8836C96.7574 64.7451 96.5267 64.6066 96.296 64.5143C96.7574 62.7603 96.9881 60.9139 96.9881 59.0214C96.9881 55.0056 95.9268 51.2667 94.0348 48.0356C92.0967 44.7121 89.328 41.8965 85.9594 39.9578C82.7292 38.0653 78.9452 37.0036 74.9767 37.0036H52.9653V70.0072H48.5815C48.5815 66.3607 45.6281 63.4065 41.9826 63.4065C38.3371 63.4065 35.3838 66.3607 35.3838 70.0072C35.3838 70.0072 31.4615 70.0072 31 70.0072V14.9858H53.0114C53.0114 10.9238 55.2264 7.3696 58.5028 5.47709C60.1178 4.55391 62.0098 4 63.9941 4C70.0853 4 74.9767 8.939 74.9767 14.9858C78.7606 14.9858 82.4523 15.4474 85.9594 16.3706C89.8817 17.3861 93.5734 18.9093 96.942 20.848C99.48 22.3251 101.88 24.033 104.048 25.9716C105.433 27.1718 106.725 28.5104 107.925 29.849C109.863 32.0185 111.57 34.4187 113.047 36.9574C115.031 40.3732 116.554 44.0659 117.523 47.9433C118.446 51.4513 118.907 55.1441 118.907 58.9291L118.953 59.0214Z" fill="#6551F3"/>
<path d="M118.954 103.057C118.954 106.842 118.493 110.535 117.57 114.043C116.555 117.966 115.032 121.659 113.094 125.028C111.617 127.567 109.91 129.967 107.972 132.137C106.772 133.522 105.434 134.814 104.095 136.014C101.926 137.953 99.5269 139.661 96.9889 141.138C93.5741 143.123 89.8825 144.646 86.0062 145.615C82.4992 146.539 78.8075 147 75.0236 147H31.0469V91.9787H35.4307C35.4307 88.1014 38.6609 85.378 42.0295 85.378C45.3981 85.378 48.6283 87.9167 48.6283 91.9787H53.0122V124.982H75.0236C79.0383 124.982 82.776 123.921 86.0062 122.028C89.3287 120.089 92.1436 117.32 94.0817 113.95C95.9737 110.719 97.035 106.934 97.035 102.965C97.035 98.9949 96.8043 99.2257 96.3428 97.4716C95.8352 95.5329 95.0969 93.6866 94.0817 91.9787C93.2049 90.5016 92.1897 89.1168 90.99 87.8706C90.3439 87.1782 89.2826 86.3012 88.2674 85.5626C86.8369 84.501 86.0062 82.7931 86.0062 81.039C86.0062 79.1927 86.8369 77.4848 88.2674 76.4232C89.6979 75.3615 90.3439 74.8076 90.99 74.1152C92.1897 72.8689 93.2049 71.4842 94.0817 70.0071C95.0508 68.2992 95.8352 66.4528 96.3428 64.5142C96.5736 64.6526 96.8043 64.7911 97.035 64.8834C99.573 66.3605 101.973 68.0684 104.141 70.0071C104.649 70.4687 105.157 70.9303 105.618 71.3918C106.449 72.1765 107.233 73.0536 108.018 73.8844C109.956 76.0539 111.663 78.4541 113.14 80.9929C115.124 84.4086 116.647 88.1014 117.616 91.9787C118.539 95.4868 119 99.1795 119 102.965L118.954 103.057Z" fill="#5444CF"/>
<path d="M69.992 45.4973H61.8242V53.6674H69.992V45.4973Z" fill="#6551F3"/>
<path d="M86.3279 45.4973H78.1602V53.6674H86.3279V45.4973Z" fill="#6551F3"/>
<path d="M78.1609 53.6672H69.9932V61.8374H78.1609V53.6672Z" fill="#6551F3"/>
<path d="M69.992 61.8369H61.8242V70.007H69.992V61.8369Z" fill="#6551F3"/>
</svg>
